<?xml version="1.0" encoding="UTF-8" standalone="no"?>
<!-- Created with Inkscape (http://www.inkscape.org/) -->

<svg
   xmlns:dc="http://purl.org/dc/elements/1.1/"
   xmlns:cc="http://creativecommons.org/ns#"
   xmlns:rdf="http://www.w3.org/1999/02/22-rdf-syntax-ns#"
   xmlns:svg="http://www.w3.org/2000/svg"
   xmlns="http://www.w3.org/2000/svg"
   version="1.1"
   width="175.40746"
   height="61.96875"
   id="svg3075">
  <defs
     id="defs3077" />
  <metadata
     id="metadata3080">
    <rdf:RDF>
      <cc:Work
         rdf:about="">
        <dc:format>image/svg+xml</dc:format>
        <dc:type
           rdf:resource="http://purl.org/dc/dcmitype/StillImage" />
        <dc:title></dc:title>
      </cc:Work>
    </rdf:RDF>
  </metadata>
  <g
     id="g3266">
    <g
       id="g3255">
      <g
         id="g3247">
        <path
           d="m 50.09765,27.81334 a 10.354065,10.354065 0 1 1 -20.70813,0 10.354065,10.354065 0 1 1 20.70813,0 z"
           id="path3891"
           style="fill:#ff7e08;fill-opacity:1;stroke:none" />
        <path
           d="m 43.784196,27.813328 a 4.040611,4.040611 0 1 1 -8.081222,0 4.040611,4.040611 0 1 1 8.081222,0 z"
           id="path3893"
           style="fill:#000000;fill-opacity:1;stroke:none" />
      </g>
      <path
         d="m 29.32881,13.03984 13.28781,0 c 9.53325,0 8.78499,-6.27236 8.78499,-8.36177"
         id="path3899"
         style="fill:none;stroke:#000000;stroke-width:4.5;stroke-linecap:butt;stroke-linejoin:miter;stroke-miterlimit:4;stroke-opacity:1;stroke-dasharray:none" />
      <g
         id="g3251">
        <path
           d="m 3.59297,27.81334 a 10.354065,10.354065 0 1 0 20.70813,0 10.354065,10.354065 0 1 0 -20.70813,0 z"
           id="path3915"
           style="fill:#ff7e08;fill-opacity:1;stroke:none" />
        <path
           d="m 9.9064259,27.813328 a 4.040611,4.040611 0 1 0 8.0812221,0 4.040611,4.040611 0 1 0 -8.0812221,0 z"
           id="path3917"
           style="fill:#000000;fill-opacity:1;stroke:none" />
      </g>
      <path
         d="m 24.361805,13.03984 -13.287805,0 c -9.533249,0 -8.784989,-6.27236 -8.784989,-8.36177"
         id="path3919"
         style="fill:none;stroke:#000000;stroke-width:4.5;stroke-linecap:butt;stroke-linejoin:miter;stroke-miterlimit:4;stroke-opacity:1;stroke-dasharray:none" />
      <path
         d="m 21.781496,43.09781 c -1.673634,-4.88144 2.900657,-5.29985 5.043494,-5.29985 2.4387,0 6.71714,0.41841 5.0435,5.29985 -1.67364,4.88143 -5.0435,16.4574 -5.0435,16.4574 0,0 -3.369858,-11.57597 -5.043494,-16.4574 z"
         id="path3925"
         style="fill:#000000;fill-opacity:1;stroke:none" />
    </g>
    <path
       d="m 69.3411,0.0095 0,61.96429"
       id="path3933"
       style="fill:none;stroke:#000000;stroke-width:1px;stroke-linecap:butt;stroke-linejoin:miter;stroke-opacity:1" />
    <path
       d="m 91.940651,18.709381 c 0.423168,0.143236 0.833324,0.449225 1.230469,0.917969 0.403635,0.468755 0.80728,1.113286 1.210937,1.933594 l 2.001953,3.984375 -2.11914,0 -1.865235,-3.740235 c -0.481779,-0.976558 -0.950529,-1.624343 -1.40625,-1.943359 -0.449226,-0.319005 -1.06446,-0.47851 -1.845703,-0.478516 l -2.148437,0 0,6.16211 -1.972657,0 0,-14.580079 4.453125,0 c 1.666659,1.5e-5 2.910147,0.348322 3.730469,1.044922 0.820302,0.696628 1.230458,1.748059 1.230469,3.154297 -1.1e-5,0.917978 -0.214855,1.679696 -0.644531,2.285156 -0.423188,0.605477 -1.041677,1.025398 -1.855469,1.259766 m -4.941406,-6.123047 0,5.175781 2.480468,0 c 0.950514,8e-6 1.666659,-0.21809 2.148438,-0.654296 0.488272,-0.4427 0.732413,-1.090486 0.732422,-1.94336 -9e-6,-0.852853 -0.24415,-1.494129 -0.732422,-1.923828 -0.481779,-0.436185 -1.197924,-0.654284 -2.148438,-0.654297 l -2.480468,0"
       id="path3201"
       style="font-size:20px;font-style:normal;font-variant:normal;font-weight:normal;font-stretch:normal;line-height:125%;letter-spacing:0px;word-spacing:0px;fill:#000000;fill-opacity:1;stroke:none;font-family:Verdana;-inkscape-font-specification:Verdana" />
    <path
       d="m 107.31174,19.62735 0,0.878906 -8.261714,0 c 0.07812,1.236983 0.449215,2.180993 1.113284,2.832031 0.67057,0.644533 1.60155,0.966798 2.79297,0.966797 0.69009,10e-7 1.35741,-0.08463 2.00195,-0.253906 0.65103,-0.169269 1.29556,-0.423175 1.93359,-0.761719 l 0,1.699219 c -0.64454,0.273438 -1.30535,0.481771 -1.98242,0.625 -0.67709,0.143229 -1.36394,0.214843 -2.06055,0.214844 -1.74479,-1e-6 -3.128255,-0.507813 -4.150387,-1.523438 -1.015626,-1.015623 -1.523438,-2.389319 -1.523437,-4.121094 -10e-7,-1.790357 0.481769,-3.209626 1.445312,-4.257812 0.970049,-1.054677 2.275382,-1.58202 3.916012,-1.582031 1.47135,1.1e-5 2.63346,0.475271 3.48633,1.425781 0.85937,0.944019 1.28905,2.229825 1.28906,3.857422 m -1.79687,-0.527344 c -0.013,-0.983065 -0.28972,-1.76757 -0.83008,-2.353516 -0.53386,-0.585928 -1.2435,-0.878896 -2.1289,-0.878906 -1.00261,10e-6 -1.80665,0.283213 -2.41211,0.84961 -0.598966,0.566414 -0.944018,1.363939 -1.03516,2.392578 l 6.40625,-0.0098"
       id="path3203"
       style="font-size:20px;font-style:normal;font-variant:normal;font-weight:normal;font-stretch:normal;line-height:125%;letter-spacing:0px;word-spacing:0px;fill:#000000;fill-opacity:1;stroke:none;font-family:Verdana;-inkscape-font-specification:Verdana" />
    <path
       d="m 117.45823,16.267975 0,-5.917969 1.79687,0 0,15.195313 -1.79687,0 0,-1.640625 c -0.37761,0.651042 -0.85613,1.136068 -1.43555,1.455078 -0.57292,0.3125 -1.26303,0.468749 -2.07031,0.46875 -1.32162,-1e-6 -2.39909,-0.527344 -3.23242,-1.582032 -0.82683,-1.054685 -1.24024,-2.441402 -1.24024,-4.160156 0,-1.718743 0.41341,-3.10546 1.24024,-4.160156 0.83333,-1.054677 1.9108,-1.58202 3.23242,-1.582031 0.80728,1.1e-5 1.49739,0.159516 2.07031,0.478515 0.57942,0.312511 1.05794,0.794281 1.43555,1.445313 m -6.12305,3.818359 c 0,1.321619 0.27018,2.360029 0.81055,3.115235 0.54687,0.748699 1.29557,1.123048 2.24609,1.123046 0.95052,2e-6 1.69921,-0.374347 2.2461,-1.123046 0.54686,-0.755206 0.8203,-1.793616 0.82031,-3.115235 -1e-5,-1.321608 -0.27345,-2.356763 -0.82031,-3.105469 -0.54689,-0.755199 -1.29558,-1.132802 -2.2461,-1.132812 -0.95052,10e-6 -1.69922,0.377613 -2.24609,1.132812 -0.54037,0.748706 -0.81055,1.783861 -0.81055,3.105469"
       id="path3205"
       style="font-size:20px;font-style:normal;font-variant:normal;font-weight:normal;font-stretch:normal;line-height:125%;letter-spacing:0px;word-spacing:0px;fill:#000000;fill-opacity:1;stroke:none;font-family:Verdana;-inkscape-font-specification:Verdana" />
    <path
       d="m 129.92893,14.930084 0,1.699219 c -0.50782,-0.260408 -1.03516,-0.45572 -1.58203,-0.585938 -0.54688,-0.130198 -1.11329,-0.195302 -1.69922,-0.195312 -0.89193,10e-6 -1.5625,0.136728 -2.01172,0.410156 -0.44271,0.273447 -0.66406,0.683603 -0.66406,1.230469 0,0.416674 0.1595,0.74545 0.47852,0.986328 0.319,0.234382 0.96028,0.458991 1.92382,0.673828 l 0.61524,0.136719 c 1.27603,0.273443 2.18098,0.660813 2.71484,1.162109 0.54036,0.494797 0.81054,1.188155 0.81055,2.080078 -1e-5,1.015627 -0.40366,1.819663 -1.21094,2.41211 -0.80079,0.592448 -1.9043,0.888671 -3.31054,0.888672 -0.58595,-1e-6 -1.19793,-0.05859 -1.83594,-0.175782 -0.63152,-0.110677 -1.29883,-0.279947 -2.00196,-0.507812 l 0,-1.855469 c 0.66407,0.345054 1.31836,0.605471 1.9629,0.78125 0.64452,0.169272 1.28254,0.253908 1.91406,0.253906 0.84635,2e-6 1.49739,-0.143227 1.95312,-0.429687 0.45572,-0.292967 0.68359,-0.703123 0.6836,-1.230469 -1e-5,-0.488278 -0.16603,-0.862626 -0.49805,-1.123047 -0.32553,-0.260412 -1.04493,-0.511063 -2.1582,-0.751953 l -0.625,-0.146484 c -1.11329,-0.23437 -1.91732,-0.592443 -2.41211,-1.074219 -0.4948,-0.488275 -0.74219,-1.155592 -0.74219,-2.001953 0,-1.028637 0.36458,-1.822907 1.09375,-2.382813 0.72916,-0.559884 1.76432,-0.839832 3.10547,-0.839843 0.66405,1.1e-5 1.28905,0.04884 1.875,0.146484 0.58593,0.09767 1.12629,0.244152 1.62109,0.439453"
       id="path3207"
       style="font-size:20px;font-style:normal;font-variant:normal;font-weight:normal;font-stretch:normal;line-height:125%;letter-spacing:0px;word-spacing:0px;fill:#000000;fill-opacity:1;stroke:none;font-family:Verdana;-inkscape-font-specification:Verdana" />
    <path
       d="m 135.16331,11.50235 0,3.105469 3.70117,0 0,1.396484 -3.70117,0 0,5.9375 c -1e-5,0.89193 0.12044,1.464846 0.36133,1.71875 0.24739,0.253908 0.74543,0.380861 1.49414,0.380859 l 1.8457,0 0,1.503907 -1.8457,0 c -1.38673,0 -2.34376,-0.257162 -2.8711,-0.771485 -0.52734,-0.520832 -0.79102,-1.464841 -0.79101,-2.832031 l 0,-5.9375 -1.31836,0 0,-1.396484 1.31836,0 0,-3.105469 1.80664,0"
       id="path3209"
       style="font-size:20px;font-style:normal;font-variant:normal;font-weight:normal;font-stretch:normal;line-height:125%;letter-spacing:0px;word-spacing:0px;fill:#000000;fill-opacity:1;stroke:none;font-family:Verdana;-inkscape-font-specification:Verdana" />
    <path
       d="m 145.47581,15.867584 c -0.96355,10e-6 -1.72527,0.377614 -2.28516,1.132813 -0.5599,0.748705 -0.83985,1.77735 -0.83984,3.085937 -1e-5,1.308598 0.27669,2.340498 0.83008,3.095703 0.55989,0.7487 1.32486,1.123048 2.29492,1.123047 0.95702,10e-7 1.71548,-0.377602 2.27539,-1.132812 0.55988,-0.755205 0.83983,-1.78385 0.83984,-3.085938 -1e-5,-1.295566 -0.27996,-2.320956 -0.83984,-3.076172 -0.55991,-0.761709 -1.31837,-1.142568 -2.27539,-1.142578 m 0,-1.523437 c 1.56249,1.1e-5 2.7897,0.507823 3.68164,1.523437 0.89191,1.015634 1.33788,2.421882 1.33789,4.21875 -1e-5,1.790368 -0.44598,3.196617 -1.33789,4.21875 -0.89194,1.015625 -2.11915,1.523437 -3.68164,1.523438 -1.56902,-1e-6 -2.79949,-0.507813 -3.69141,-1.523438 -0.88542,-1.022133 -1.32813,-2.428382 -1.32812,-4.21875 -1e-5,-1.796868 0.4427,-3.203116 1.32812,-4.21875 0.89192,-1.015614 2.12239,-1.523426 3.69141,-1.523437"
       id="path3211"
       style="font-size:20px;font-style:normal;font-variant:normal;font-weight:normal;font-stretch:normal;line-height:125%;letter-spacing:0px;word-spacing:0px;fill:#000000;fill-opacity:1;stroke:none;font-family:Verdana;-inkscape-font-specification:Verdana" />
    <path
       d="m 162.55589,18.943756 0,6.601563 -1.79688,0 0,-6.542969 c -1e-5,-1.035149 -0.20183,-1.809888 -0.60547,-2.324219 -0.40365,-0.514313 -1.00912,-0.771475 -1.8164,-0.771484 -0.97006,9e-6 -1.73504,0.309254 -2.29493,0.927734 -0.5599,0.618498 -0.83984,1.461596 -0.83984,2.529297 l 0,6.181641 -1.80664,0 0,-10.9375 1.80664,0 0,1.699218 c 0.42968,-0.657542 0.93424,-1.149078 1.51367,-1.474609 0.58593,-0.32551 1.25976,-0.48827 2.02149,-0.488281 1.2565,1.1e-5 2.20702,0.390636 2.85156,1.171875 0.64452,0.774749 0.96678,1.917326 0.9668,3.427734"
       id="path3213"
       style="font-size:20px;font-style:normal;font-variant:normal;font-weight:normal;font-stretch:normal;line-height:125%;letter-spacing:0px;word-spacing:0px;fill:#000000;fill-opacity:1;stroke:none;font-family:Verdana;-inkscape-font-specification:Verdana" />
    <path
       d="m 175.51487,19.62735 0,0.878906 -8.26172,0 c 0.0781,1.236983 0.44922,2.180993 1.11328,2.832031 0.67057,0.644533 1.60156,0.966798 2.79297,0.966797 0.6901,10e-7 1.35741,-0.08463 2.00195,-0.253906 0.65104,-0.169269 1.29557,-0.423175 1.9336,-0.761719 l 0,1.699219 c -0.64454,0.273438 -1.30535,0.481771 -1.98242,0.625 -0.6771,0.143229 -1.36394,0.214843 -2.06055,0.214844 -1.7448,-1e-6 -3.12826,-0.507813 -4.15039,-1.523438 -1.01563,-1.015623 -1.52344,-2.389319 -1.52344,-4.121094 0,-1.790357 0.48177,-3.209626 1.44531,-4.257812 0.97005,-1.054677 2.27539,-1.58202 3.91602,-1.582031 1.47135,1.1e-5 2.63345,0.475271 3.48633,1.425781 0.85936,0.944019 1.28905,2.229825 1.28906,3.857422 m -1.79688,-0.527344 c -0.013,-0.983065 -0.28972,-1.76757 -0.83007,-2.353516 -0.53387,-0.585928 -1.2435,-0.878896 -2.12891,-0.878906 -1.00261,10e-6 -1.80664,0.283213 -2.41211,0.84961 -0.59896,0.566414 -0.94401,1.363939 -1.03516,2.392578 l 6.40625,-0.0098"
       id="path3215"
       style="font-size:20px;font-style:normal;font-variant:normal;font-weight:normal;font-stretch:normal;line-height:125%;letter-spacing:0px;word-spacing:0px;fill:#000000;fill-opacity:1;stroke:none;font-family:Verdana;-inkscape-font-specification:Verdana" />
    <path
       d="m 86.999245,34.543427 0,11.33789 2.382812,0 c 2.011711,2e-6 3.483063,-0.455727 4.414063,-1.367187 0.937488,-0.911455 1.406238,-2.350255 1.40625,-4.316407 -1.2e-5,-1.953115 -0.468762,-3.38215 -1.40625,-4.287109 -0.931,-0.911446 -2.402352,-1.367175 -4.414063,-1.367187 l -2.382812,0 m -1.972657,-1.621094 4.052735,0 c 2.825512,1.4e-5 4.899077,0.589206 6.220703,1.767578 1.321601,1.171887 1.982408,3.007822 1.982422,5.507812 -1.4e-5,2.513026 -0.664076,4.358727 -1.992188,5.53711 -1.328136,1.178386 -3.398446,1.767578 -6.210937,1.767578 l -4.052735,0 0,-14.580078"
       id="path3218"
       style="font-size:20px;font-style:normal;font-variant:normal;font-weight:normal;font-stretch:normal;line-height:125%;letter-spacing:0px;word-spacing:0px;fill:#000000;fill-opacity:1;stroke:none;font-family:Verdana;-inkscape-font-specification:Verdana" />
    <path
       d="m 100.33909,36.564911 1.79687,0 0,10.9375 -1.79687,0 0,-10.9375 m 0,-4.257813 1.79687,0 0,2.275391 -1.79687,0 0,-2.275391"
       id="path3220"
       style="font-size:20px;font-style:normal;font-variant:normal;font-weight:normal;font-stretch:normal;line-height:125%;letter-spacing:0px;word-spacing:0px;fill:#000000;fill-opacity:1;stroke:none;font-family:Verdana;-inkscape-font-specification:Verdana" />
    <path
       d="m 113.08323,41.906708 c -1e-5,-1.302077 -0.27019,-2.31119 -0.81055,-3.027344 -0.53386,-0.716136 -1.28581,-1.074209 -2.25586,-1.074219 -0.96354,10e-6 -1.7155,0.358083 -2.25586,1.074219 -0.53385,0.716154 -0.80078,1.725267 -0.80078,3.027344 0,1.295577 0.26693,2.301435 0.80078,3.017578 0.54036,0.716148 1.29232,1.07422 2.25586,1.074219 0.97005,10e-7 1.722,-0.358071 2.25586,-1.074219 0.54036,-0.716143 0.81054,-1.722001 0.81055,-3.017578 m 1.79687,4.238281 c -1e-5,1.861979 -0.41342,3.245441 -1.24023,4.150391 -0.82683,0.911454 -2.09311,1.367183 -3.79883,1.367187 -0.63151,-4e-6 -1.22722,-0.04883 -1.78711,-0.146484 -0.5599,-0.09115 -1.10352,-0.234379 -1.63086,-0.429688 l 0,-1.748047 c 0.52734,0.286457 1.04818,0.498045 1.5625,0.634766 0.51432,0.136716 1.03841,0.205075 1.57227,0.205078 1.17838,-3e-6 2.06054,-0.309247 2.64648,-0.927734 0.58593,-0.611981 0.8789,-1.539714 0.87891,-2.783203 l 0,-0.888672 c -0.3711,0.644532 -0.84636,1.126303 -1.42578,1.445312 -0.57944,0.319011 -1.2728,0.478516 -2.08008,0.478516 -1.34115,0 -2.42188,-0.511067 -3.24219,-1.533203 -0.82031,-1.022133 -1.23047,-2.376298 -1.23047,-4.0625 0,-1.692701 0.41016,-3.050122 1.23047,-4.072266 0.82031,-1.022125 1.90104,-1.533192 3.24219,-1.533203 0.80728,1.1e-5 1.50064,0.159516 2.08008,0.478516 0.57942,0.31902 1.05468,0.800791 1.42578,1.445312 l 0,-1.660156 1.79687,0 0,9.580078"
       id="path3222"
       style="font-size:20px;font-style:normal;font-variant:normal;font-weight:normal;font-stretch:normal;line-height:125%;letter-spacing:0px;word-spacing:0px;fill:#000000;fill-opacity:1;stroke:none;font-family:Verdana;-inkscape-font-specification:Verdana" />
    <path
       d="m 118.58128,36.564911 1.79687,0 0,10.9375 -1.79687,0 0,-10.9375 m 0,-4.257813 1.79687,0 0,2.275391 -1.79687,0 0,-2.275391"
       id="path3224"
       style="font-size:20px;font-style:normal;font-variant:normal;font-weight:normal;font-stretch:normal;line-height:125%;letter-spacing:0px;word-spacing:0px;fill:#000000;fill-opacity:1;stroke:none;font-family:Verdana;-inkscape-font-specification:Verdana" />
    <path
       d="m 125.90549,33.459442 0,3.105469 3.70118,0 0,1.396484 -3.70118,0 0,5.9375 c 0,0.89193 0.12044,1.464846 0.36133,1.71875 0.24739,0.253908 0.74544,0.380861 1.49414,0.38086 l 1.84571,0 0,1.503906 -1.84571,0 c -1.38672,0 -2.34375,-0.257161 -2.87109,-0.771484 -0.52735,-0.520833 -0.79102,-1.464842 -0.79102,-2.832032 l 0,-5.9375 -1.31836,0 0,-1.396484 1.31836,0 0,-3.105469 1.80664,0"
       id="path3226"
       style="font-size:20px;font-style:normal;font-variant:normal;font-weight:normal;font-stretch:normal;line-height:125%;letter-spacing:0px;word-spacing:0px;fill:#000000;fill-opacity:1;stroke:none;font-family:Verdana;-inkscape-font-specification:Verdana" />
    <path
       d="m 136.95042,42.004364 c -1.45183,6e-6 -2.45769,0.166021 -3.01758,0.498047 -0.5599,0.332036 -0.83985,0.898441 -0.83985,1.699219 0,0.638023 0.20833,1.145835 0.625,1.523437 0.42318,0.371095 0.99609,0.556642 1.71875,0.556641 0.99609,10e-7 1.79362,-0.351561 2.39258,-1.054688 0.60546,-0.709632 0.9082,-1.650386 0.90821,-2.822265 l 0,-0.400391 -1.78711,0 m 3.58398,-0.742187 0,6.240234 -1.79687,0 0,-1.660156 c -0.41017,0.664063 -0.92124,1.155599 -1.53321,1.474609 -0.61198,0.3125 -1.36068,0.46875 -2.24609,0.46875 -1.1198,0 -2.01172,-0.3125 -2.67578,-0.9375 -0.65756,-0.631509 -0.98633,-1.474607 -0.98633,-2.529297 0,-1.230464 0.41015,-2.158198 1.23047,-2.783203 0.82682,-0.624993 2.05729,-0.937493 3.6914,-0.9375 l 2.51954,0 0,-0.175781 c -1e-5,-0.826815 -0.27345,-1.464835 -0.82032,-1.914063 -0.54037,-0.455719 -1.30209,-0.683584 -2.28515,-0.683593 -0.62501,9e-6 -1.23373,0.07488 -1.82617,0.224609 -0.59246,0.149749 -1.16212,0.374358 -1.70899,0.673828 l 0,-1.660156 c 0.65755,-0.253896 1.29557,-0.442698 1.91406,-0.566406 0.61849,-0.130198 1.2207,-0.195302 1.80664,-0.195313 1.58203,1.1e-5 2.76367,0.410167 3.54493,1.230469 0.78124,0.820321 1.17186,2.06381 1.17187,3.730469"
       id="path3228"
       style="font-size:20px;font-style:normal;font-variant:normal;font-weight:normal;font-stretch:normal;line-height:125%;letter-spacing:0px;word-spacing:0px;fill:#000000;fill-opacity:1;stroke:none;font-family:Verdana;-inkscape-font-specification:Verdana" />
    <path
       d="m 144.24534,32.307098 1.79687,0 0,15.195313 -1.79687,0 0,-15.195313"
       id="path3230"
       style="font-size:20px;font-style:normal;font-variant:normal;font-weight:normal;font-stretch:normal;line-height:125%;letter-spacing:0px;word-spacing:0px;fill:#000000;fill-opacity:1;stroke:none;font-family:Verdana;-inkscape-font-specification:Verdana" />
  </g>
</svg>
