<?xml version="1.0" encoding="UTF-8" standalone="no"?>
<!-- Created with Inkscape (http://www.inkscape.org/) -->

<svg
   xmlns:dc="http://purl.org/dc/elements/1.1/"
   xmlns:cc="http://creativecommons.org/ns#"
   xmlns:rdf="http://www.w3.org/1999/02/22-rdf-syntax-ns#"
   xmlns:svg="http://www.w3.org/2000/svg"
   xmlns="http://www.w3.org/2000/svg"
   version="1.1"
   width="70.053268"
   height="79.643105"
   id="svg5069">
  <defs
     id="defs5071" />
  <metadata
     id="metadata5074">
    <rdf:RDF>
      <cc:Work
         rdf:about="">
        <dc:format>image/svg+xml</dc:format>
        <dc:type
           rdf:resource="http://purl.org/dc/dcmitype/StillImage" />
        <dc:title></dc:title>
      </cc:Work>
    </rdf:RDF>
  </metadata>
  <g
     transform="translate(-536.40193,-843.9692)"
     id="layer1">
    <path
       d="m 540.25767,872.53305 c -7.43814,14.47928 -3.9743,32.78543 9.17812,43.36892 15.03133,12.09541 37.21366,9.69445 49.30907,-5.33689 12.09542,-15.03133 9.69445,-37.21365 -5.33688,-49.30907 a 6.0635919,6.0635919 0 0 0 -7.60439,9.44679 c 9.93073,7.99107 11.50064,22.33502 3.50957,32.26575 -7.99106,9.93073 -22.34225,11.47769 -32.27298,3.48663 -9.93074,-7.99107 -11.48556,-22.32716 -3.49449,-32.2579 1.10798,-1.37692 2.36551,-2.63275 3.75906,-3.71974 a 6.0576057,6.0576057 0 1 0 -7.43651,-9.54961 c -2.12911,1.66075 -4.06144,3.56912 -5.75425,5.67282 -1.51193,1.87892 -2.79373,3.86384 -3.85632,5.9323 z"
       id="path4999"
       style="font-size:medium;font-style:normal;font-variant:normal;font-weight:normal;font-stretch:normal;text-indent:0;text-align:start;text-decoration:none;line-height:normal;letter-spacing:normal;word-spacing:normal;text-transform:none;direction:ltr;block-progression:tb;writing-mode:lr-tb;text-anchor:start;baseline-shift:baseline;color:#000000;fill:#000000;fill-opacity:0.50196078;stroke:none;stroke-width:22.25335312;marker:none;visibility:visible;display:inline;overflow:visible;enable-background:accumulate;font-family:Sans;-inkscape-font-specification:Sans" />
    <path
       d="m 572.0485,843.97002 a 6.0576059,6.0576059 0 0 0 -5.96875,6.15625 l 0,26.9375 a 6.0625,6.0625 0 0 0 12.125,0 l 0,-26.9375 a 6.0576059,6.0576059 0 0 0 -6.15625,-6.15625 z"
       id="path5001"
       style="font-size:medium;font-style:normal;font-variant:normal;font-weight:normal;font-stretch:normal;text-indent:0;text-align:start;text-decoration:none;line-height:normal;letter-spacing:normal;word-spacing:normal;text-transform:none;direction:ltr;block-progression:tb;writing-mode:lr-tb;text-anchor:start;baseline-shift:baseline;color:#000000;fill:#000000;fill-opacity:0.50196078;stroke:none;stroke-width:12.11400032;marker:none;visibility:visible;display:inline;overflow:visible;enable-background:accumulate;font-family:Sans;-inkscape-font-specification:Sans" />
  </g>
</svg>
