<?xml version="1.0" encoding="UTF-8" standalone="no"?>
<!-- Created with Inkscape (http://www.inkscape.org/) -->

<svg
   xmlns:dc="http://purl.org/dc/elements/1.1/"
   xmlns:cc="http://creativecommons.org/ns#"
   xmlns:rdf="http://www.w3.org/1999/02/22-rdf-syntax-ns#"
   xmlns:svg="http://www.w3.org/2000/svg"
   xmlns="http://www.w3.org/2000/svg"
   version="1.1"
   width="105.18908"
   height="111.07615"
   id="svg5053">
  <defs
     id="defs5055" />
  <metadata
     id="metadata5058">
    <rdf:RDF>
      <cc:Work
         rdf:about="">
        <dc:format>image/svg+xml</dc:format>
        <dc:type
           rdf:resource="http://purl.org/dc/dcmitype/StillImage" />
        <dc:title></dc:title>
      </cc:Work>
    </rdf:RDF>
  </metadata>
  <g
     transform="translate(-482.00735,-422.42062)"
     id="layer1">
    <g
       transform="translate(230.00734,271.62987)"
       id="g5008"
       style="fill:#000000;fill-opacity:0.50196078">
      <path
         d="m 308.57144,212.00504 c 0,5.72009 -4.63705,10.35714 -10.35715,10.35714 -5.72009,0 -10.35714,-4.63705 -10.35714,-10.35714 0,-5.7201 4.63705,-10.35715 10.35714,-10.35715 5.7201,0 10.35715,4.63705 10.35715,10.35715 z"
         transform="matrix(1.5310345,0,0,1.5310345,-188.71922,-157.93913)"
         id="path4979"
         style="fill:#000000;fill-opacity:0.50196078;stroke:none" />
    </g>
    <g
       transform="translate(301.4361,350.99173)"
       id="g5011"
       style="fill:#000000;fill-opacity:0.50196078">
      <path
         d="m 308.57144,212.00504 c 0,5.72009 -4.63705,10.35714 -10.35715,10.35714 -5.72009,0 -10.35714,-4.63705 -10.35714,-10.35714 0,-5.7201 4.63705,-10.35715 10.35714,-10.35715 5.7201,0 10.35715,4.63705 10.35715,10.35715 z"
         transform="matrix(1.5310345,0,0,1.5310345,-188.71922,-157.93913)"
         id="path5013"
         style="fill:#000000;fill-opacity:0.50196078;stroke:none" />
    </g>
    <path
       d="m 29.65625,-22.0625 0,14.78125 43.65625,0 0,19.1875 -10.6875,0 18.0625,31.15625 18.0625,-31.15625 -10.625,0 0,-26.59375 0,-7.375 -7.40625,0 -51.0625,0 z"
       transform="translate(488.44643,453.09556)"
       id="path2987"
       style="font-size:medium;font-style:normal;font-variant:normal;font-weight:normal;font-stretch:normal;text-indent:0;text-align:start;text-decoration:none;line-height:normal;letter-spacing:normal;word-spacing:normal;text-transform:none;direction:ltr;block-progression:tb;writing-mode:lr-tb;text-anchor:start;baseline-shift:baseline;color:#000000;fill:#000000;fill-opacity:0.50196078;stroke:none;stroke-width:14.80000019;marker:none;visibility:visible;display:inline;overflow:visible;enable-background:accumulate;font-family:Sans;-inkscape-font-specification:Sans" />
  </g>
</svg>
