<?xml version="1.0" encoding="UTF-8" standalone="no"?>
<!-- Created with Inkscape (http://www.inkscape.org/) -->

<svg
   xmlns:dc="http://purl.org/dc/elements/1.1/"
   xmlns:cc="http://creativecommons.org/ns#"
   xmlns:rdf="http://www.w3.org/1999/02/22-rdf-syntax-ns#"
   xmlns:svg="http://www.w3.org/2000/svg"
   xmlns="http://www.w3.org/2000/svg"
   xmlns:sodipodi="http://sodipodi.sourceforge.net/DTD/sodipodi-0.dtd"
   xmlns:inkscape="http://www.inkscape.org/namespaces/inkscape"
   width="744.09448819"
   height="1052.3622047"
   id="svg4628"
   version="1.1"
   inkscape:version="0.48.4 r9939"
   sodipodi:docname="InstructionSet_TitlePage.svg">
  <defs
     id="defs4630" />
  <sodipodi:namedview
     id="base"
     pagecolor="#ffffff"
     bordercolor="#666666"
     borderopacity="1.0"
     inkscape:pageopacity="0.0"
     inkscape:pageshadow="2"
     inkscape:zoom="0.70710678"
     inkscape:cx="653.60412"
     inkscape:cy="562.38811"
     inkscape:document-units="px"
     inkscape:current-layer="layer1"
     showgrid="false"
     inkscape:window-width="1920"
     inkscape:window-height="1028"
     inkscape:window-x="1672"
     inkscape:window-y="-8"
     inkscape:window-maximized="1" />
  <metadata
     id="metadata4633">
    <rdf:RDF>
      <cc:Work
         rdf:about="">
        <dc:format>image/svg+xml</dc:format>
        <dc:type
           rdf:resource="http://purl.org/dc/dcmitype/StillImage" />
        <dc:title></dc:title>
      </cc:Work>
    </rdf:RDF>
  </metadata>
  <g
     inkscape:label="Layer 1"
     inkscape:groupmode="layer"
     id="layer1">
    <rect
       style="fill:#59a5e2;fill-opacity:1;stroke:none"
       id="rect4636"
       width="745.71149"
       height="864.28571"
       x="0.0027909279"
       y="0.93361008" />
    <flowRoot
       xml:space="preserve"
       id="flowRoot5399"
       style="fill:black;stroke:none;stroke-opacity:1;stroke-width:1px;stroke-linejoin:miter;stroke-linecap:butt;fill-opacity:1;font-family:Everson Mono Unicode;font-style:normal;font-weight:normal;font-size:20px;line-height:125%;letter-spacing:0px;word-spacing:0px;-inkscape-font-specification:Everson Mono Unicode;font-stretch:normal;font-variant:normal;text-anchor:start;text-align:start;writing-mode:lr"><flowRegion
         id="flowRegion5401"><rect
           id="rect5403"
           width="354.05847"
           height="112.12693"
           x="24.748737"
           y="919.5271"
           style="font-size:20px" /></flowRegion><flowPara
         id="flowPara5405"></flowPara></flowRoot>    <path
       d="m 58.571429,0 0,1052.3622 M 128.57143,0 l 0,1052.3622 m 70,-1052.3622 0,1052.3622 m 70,-1052.3622 0,1052.3622 m 70,-1052.3622 0,1052.3622 m 70,-1052.3622 0,1052.3622 m 70,-1052.3622 0,1052.3622 m 70,-1052.3622 0,1052.3622 m 70,-1052.3622 0,1052.3622 m 70,-1052.3622 0,1052.3622 M 0,0 744.09448,0 M 0,51.428571 l 744.09448,0 M 0,121.42857 l 744.09448,0 m -744.09448,70 744.09448,0 m -744.09448,70 744.09448,0 m -744.09448,70 744.09448,0 m -744.09448,70 744.09448,0 m -744.09448,70 744.09448,0 m -744.09448,70 744.09448,0 m -744.09448,70 744.09448,0 m -744.09448,70 744.09448,0 m -744.09448,70 744.09448,0 m -744.09448,70 744.09448,0 m -744.09448,70 744.09448,0 m -744.09448,70 744.09448,0 M 0,1031.4286 l 744.09448,0"
       style="fill:none;stroke:#ffffff;stroke-width:1.125;stroke-linecap:butt;stroke-linejoin:miter;stroke-miterlimit:4;stroke-opacity:0.23404254;stroke-dasharray:none"
       id="path5469"
       inkscape:connector-curvature="0"
       sodipodi:nodetypes="cccccccccccccccccccccccccccccccccccccccccccccccccccc" />
    <g
       id="g5294"
       transform="translate(0.35714286,1.6428571)">
      <text
         sodipodi:linespacing="125%"
         id="text2997-7"
         y="305.81082"
         x="79.099991"
         style="font-size:95.77054596px;font-style:normal;font-weight:normal;line-height:125%;letter-spacing:0px;word-spacing:0px;fill:#000000;fill-opacity:1;stroke:none;font-family:Sans"
         xml:space="preserve"><tspan
           style="font-size:23.94263649px;font-style:normal;font-variant:normal;font-weight:bold;font-stretch:normal;fill:#000000;fill-opacity:1;font-family:Prestige Elite Std;-inkscape-font-specification:Prestige Elite Std Bold"
           y="305.81082"
           x="79.099991"
           id="tspan2999-6"
           sodipodi:role="line">The Minecraft Redstone Automatic Computer</tspan></text>
      <path
         inkscape:connector-curvature="0"
         id="path3001-1"
         d="m 54.924313,264.45885 636.558937,0"
         style="fill:none;stroke:#000000;stroke-width:2.49414825px;stroke-linecap:butt;stroke-linejoin:miter;stroke-opacity:1" />
      <g
         transform="matrix(2.3942636,0,0,2.3942636,-196.54902,-514.23882)"
         style="font-size:40px;font-style:normal;font-weight:normal;line-height:125%;letter-spacing:0px;word-spacing:0px;fill:#000000;fill-opacity:1;stroke:none;font-family:Sans"
         id="flowRoot2985-4">
        <path
           inkscape:connector-curvature="0"
           d="m 122.01874,290.01812 0,2.23997 2.79996,0 0,19.51975 -2.79996,0 0,2.23997 8.59989,0 0,-2.23997 -3.31996,0 0,-17.03978 0.08,0 5.83993,12.83984 5.83992,-12.83984 0.08,0 0,17.03978 -3.27996,0 0,2.23997 8.55989,0 0,-2.23997 -2.79996,0 0,-19.51975 2.79996,0 0,-2.23997 -5.71993,0 -5.47992,11.95985 -5.47993,-11.95985 z"
           style="font-variant:normal;font-weight:bold;font-stretch:normal;font-family:Prestige Elite Std;-inkscape-font-specification:Prestige Elite Std Bold"
           id="path3916-2" />
      </g>
      <g
         transform="matrix(2.3942636,0,0,2.3942636,-72.271587,-514.23882)"
         style="font-size:40px;font-style:normal;font-weight:normal;line-height:125%;letter-spacing:0px;word-spacing:0px;fill:#000000;fill-opacity:1;stroke:none;font-family:Sans"
         id="flowRoot3003-3">
        <path
           inkscape:connector-curvature="0"
           d="m 125.57869,290.01812 0,2.23997 6.39992,0 0,19.51975 -6.39992,0 0,2.23997 15.27981,0 0,-2.23997 -6.39992,0 0,-19.51975 6.39992,0 0,-2.23997 z"
           style="font-variant:normal;font-weight:bold;font-stretch:normal;font-family:Prestige Elite Std;-inkscape-font-specification:Prestige Elite Std Bold"
           id="path3912-2" />
      </g>
      <g
         transform="matrix(2.3942636,0,0,2.3942636,49.707413,-514.23882)"
         style="font-size:40px;font-style:normal;font-weight:normal;line-height:125%;letter-spacing:0px;word-spacing:0px;fill:#000000;fill-opacity:1;stroke:none;font-family:Sans"
         id="flowRoot3011-2">
        <path
           d="m 128.73865,292.11398 c 2.55459,0.0243 5.54847,-0.34662 7.6699,1.1241 0.93331,0.66668 1.41664,1.75333 1.44999,3.25996 0.0241,1.32916 -0.51418,2.41082 -1.61498,3.24496 -1.10084,0.83417 -2.90914,1.24583 -5.42493,1.23498 l -2.07998,-0.04 z m 6.51992,10.58398 c 1.59913,-0.45998 2.86078,-1.22997 3.78495,-2.30997 0.92414,-1.07997 1.3958,-2.46995 1.41498,-4.16995 -0.0708,-2.18328 -0.84917,-3.76659 -2.33497,-4.74994 -1.48583,-0.98329 -3.25414,-1.46662 -5.30493,-1.44998 -3.38575,0.0628 -6.66275,-0.0122 -9.83987,-6e-5 l 0,2.12004 3.27996,-0.0241 0,19.66386 -3.27996,0 0,2.23997 9.55987,0 0,-2.23997 -3.79995,0 0,-8.67989 3.87995,0 7.27991,10.91986 4.39994,0 0,-2.23997 -2.87996,0 z"
           style="font-variant:normal;font-weight:bold;font-stretch:normal;font-family:Prestige Elite Std;-inkscape-font-specification:Prestige Elite Std Bold"
           id="path3066-1"
           inkscape:connector-curvature="0"
           sodipodi:nodetypes="cccsccccsccccccccccccccccccc" />
      </g>
      <path
         inkscape:connector-curvature="0"
         id="flowRoot3019-6"
         d="m 499.05695,179.64874 -19.9023,52.59898 -4.7886,0 0,5.38709 19.1541,0 0,-5.38709 -8.3051,0 4.4893,-12.34542 22.8203,0 4.5641,12.34542 -8.2303,0 0,5.38709 19.3037,0 0,-5.38709 -4.7885,0 -20.5757,-52.59898 -3.741,0 z m 1.8705,8.52956 9.6519,26.3369 -19.0793,0 9.4274,-26.3369 z"
         style="font-size:40px;font-style:normal;font-weight:normal;line-height:125%;letter-spacing:0px;word-spacing:0px;fill:#000000;fill-opacity:1;stroke:none;font-family:Sans" />
      <g
         id="flowRoot3027-8"
         style="font-size:40px;font-style:normal;font-weight:normal;line-height:125%;letter-spacing:0px;word-spacing:0px;fill:#000000;fill-opacity:1;stroke:none;font-family:Sans"
         transform="matrix(2.3942636,0,0,2.3942636,309.53686,-514.23882)">
        <path
           sodipodi:nodetypes="ccccscsscccccccsscssccccccccc"
           inkscape:connector-curvature="0"
           id="path3090-5"
           style="font-variant:normal;font-weight:bold;font-stretch:normal;font-family:Prestige Elite Std;-inkscape-font-specification:Prestige Elite Std Bold"
           d="m 139.77851,290.89811 c -0.82834,-0.42414 -1.71166,-0.7558 -2.64997,-0.99499 -0.93833,-0.23914 -1.88165,-0.3608 -2.82996,-0.36499 -1.50765,-0.0185 -3.01676,0.36076 -4.52735,1.13776 -1.5106,0.77705 -2.77676,2.06296 -3.79847,3.85773 -1.02172,1.79481 -1.55307,4.20959 -1.59405,7.24435 0.0415,3.11627 0.57184,5.60808 1.59109,7.47546 1.01924,1.86739 2.27848,3.21255 3.77773,4.0355 1.49923,0.82295 2.98958,1.22591 4.47105,1.20888 1.58413,-0.015 3.06578,-0.345 4.44495,-0.98999 1.37913,-0.64499 2.63077,-1.51498 3.75495,-2.60997 l 0,-5.11993 -2.47997,0 c 0.0216,1.91498 -0.40168,3.46496 -1.26998,4.64994 -0.86834,1.18499 -2.31166,1.79498 -4.32995,1.82998 -1.77826,-0.0432 -3.20836,-0.59678 -4.29031,-1.66072 -1.08197,-1.06394 -1.86616,-2.37898 -2.35257,-3.94514 -0.48642,-1.56614 -0.72543,-3.12414 -0.71702,-4.67401 -0.0111,-1.58663 0.21999,-3.1555 0.69332,-4.70661 0.47332,-1.55107 1.25553,-2.84439 2.34664,-3.87995 1.09108,-1.03552 2.55773,-1.57329 4.39994,-1.61331 2.02829,0.025 3.40161,0.58501 4.11995,1.67998 0.7183,1.095 1.09163,2.57498 1.11998,4.43994 l 2.35997,-0.39999 -0.2,-3.03996 c -0.04,-0.72248 -2e-5,-1.43747 0.12,-2.14498 0.0924,-0.60093 0.14637,-0.81636 0.30011,-1.18687 l -2.23998,-0.71999 z" />
      </g>
    </g>
    <text
       xml:space="preserve"
       style="font-size:95.77054596000000700px;font-style:normal;font-weight:normal;line-height:125%;letter-spacing:0px;word-spacing:0px;fill:#ffffff;fill-opacity:1;stroke:none;font-family:Sans"
       x="77.943451"
       y="306.28101"
       id="text2997"
       sodipodi:linespacing="125%"><tspan
         sodipodi:role="line"
         id="tspan2999"
         x="77.943451"
         y="306.28101"
         style="font-size:23.94263649000000200px;font-style:normal;font-variant:normal;font-weight:bold;font-stretch:normal;fill:#ffffff;fill-opacity:1;font-family:Prestige Elite Std;-inkscape-font-specification:Prestige Elite Std Bold">The Minecraft Redstone Automatic Computer</tspan></text>
    <path
       style="fill:none;stroke:#ffffff;stroke-width:2.49414824999999980px;stroke-linecap:butt;stroke-linejoin:miter;stroke-opacity:1"
       d="m 53.767788,264.92903 636.558912,0"
       id="path3001"
       inkscape:connector-curvature="0" />
    <g
       id="flowRoot2985"
       style="font-size:40px;font-style:normal;font-weight:normal;line-height:125%;letter-spacing:0px;word-spacing:0px;fill:#ffffff;fill-opacity:1;stroke:none;font-family:Sans"
       transform="matrix(2.3942636,0,0,2.3942636,-197.70556,-513.76864)">
      <path
         id="path3916"
         style="font-variant:normal;font-weight:bold;font-stretch:normal;font-family:Prestige Elite Std;-inkscape-font-specification:Prestige Elite Std Bold;fill:#ffffff;fill-opacity:1"
         d="m 122.01874,290.01812 0,2.23997 2.79996,0 0,19.51975 -2.79996,0 0,2.23997 8.59989,0 0,-2.23997 -3.31996,0 0,-17.03978 0.08,0 5.83993,12.83984 5.83992,-12.83984 0.08,0 0,17.03978 -3.27996,0 0,2.23997 8.55989,0 0,-2.23997 -2.79996,0 0,-19.51975 2.79996,0 0,-2.23997 -5.71993,0 -5.47992,11.95985 -5.47993,-11.95985 z"
         inkscape:connector-curvature="0" />
    </g>
    <g
       id="flowRoot3003"
       style="font-size:40px;font-style:normal;font-weight:normal;line-height:125%;letter-spacing:0px;word-spacing:0px;fill:#ffffff;fill-opacity:1;stroke:none;font-family:Sans"
       transform="matrix(2.3942636,0,0,2.3942636,-73.428113,-513.76864)">
      <path
         id="path3912"
         style="font-variant:normal;font-weight:bold;font-stretch:normal;font-family:Prestige Elite Std;-inkscape-font-specification:Prestige Elite Std Bold;fill:#ffffff;fill-opacity:1"
         d="m 125.57869,290.01812 0,2.23997 6.39992,0 0,19.51975 -6.39992,0 0,2.23997 15.27981,0 0,-2.23997 -6.39992,0 0,-19.51975 6.39992,0 0,-2.23997 z"
         inkscape:connector-curvature="0" />
    </g>
    <g
       id="flowRoot3011"
       style="font-size:40px;font-style:normal;font-weight:normal;line-height:125%;letter-spacing:0px;word-spacing:0px;fill:#ffffff;fill-opacity:1;stroke:none;font-family:Sans"
       transform="matrix(2.3942636,0,0,2.3942636,48.550888,-513.76864)">
      <path
         sodipodi:nodetypes="cccsccccsccccccccccccccccccc"
         inkscape:connector-curvature="0"
         id="path3066"
         style="font-variant:normal;font-weight:bold;font-stretch:normal;font-family:Prestige Elite Std;-inkscape-font-specification:Prestige Elite Std Bold;fill:#ffffff;fill-opacity:1"
         d="m 128.73865,292.11398 c 2.55459,0.0243 5.54847,-0.34662 7.6699,1.1241 0.93331,0.66668 1.41664,1.75333 1.44999,3.25996 0.0241,1.32916 -0.51418,2.41082 -1.61498,3.24496 -1.10084,0.83417 -2.90914,1.24583 -5.42493,1.23498 l -2.07998,-0.04 z m 6.51992,10.58398 c 1.59913,-0.45998 2.86078,-1.22997 3.78495,-2.30997 0.92414,-1.07997 1.3958,-2.46995 1.41498,-4.16995 -0.0708,-2.18328 -0.84917,-3.76659 -2.33497,-4.74994 -1.48583,-0.98329 -3.25414,-1.46662 -5.30493,-1.44998 -3.38575,0.0628 -6.66275,-0.0122 -9.83987,-6e-5 l 0,2.12004 3.27996,-0.0241 0,19.66386 -3.27996,0 0,2.23997 9.55987,0 0,-2.23997 -3.79995,0 0,-8.67989 3.87995,0 7.27991,10.91986 4.39994,0 0,-2.23997 -2.87996,0 z" />
    </g>
    <path
       style="font-size:40px;font-style:normal;font-weight:normal;line-height:125%;letter-spacing:0px;word-spacing:0px;fill:#ffffff;fill-opacity:1;stroke:none;font-family:Sans"
       d="m 497.90038,180.11892 -19.90231,52.59898 -4.78853,0 0,5.38709 19.15411,0 0,-5.38709 -8.30511,0 4.48925,-12.34542 22.82032,0 4.56407,12.34542 -8.23028,0 0,5.38709 19.30375,0 0,-5.38709 -4.78853,0 -20.5757,-52.59898 -3.74104,0 z m 1.87052,8.52956 9.65187,26.3369 -19.07928,0 9.42741,-26.3369 z"
       id="flowRoot3019"
       inkscape:connector-curvature="0" />
    <g
       transform="matrix(2.3942636,0,0,2.3942636,308.38032,-513.76864)"
       style="font-size:40px;font-style:normal;font-weight:normal;line-height:125%;letter-spacing:0px;word-spacing:0px;fill:#ffffff;fill-opacity:1;stroke:none;font-family:Sans"
       id="flowRoot3027">
      <path
         d="m 139.77851,290.89811 c -0.82834,-0.42414 -1.71166,-0.7558 -2.64997,-0.99499 -0.93833,-0.23914 -1.88165,-0.3608 -2.82996,-0.36499 -1.50765,-0.0185 -3.01676,0.36076 -4.52735,1.13776 -1.5106,0.77705 -2.77676,2.06296 -3.79847,3.85773 -1.02172,1.79481 -1.55307,4.20959 -1.59405,7.24435 0.0415,3.11627 0.57184,5.60808 1.59109,7.47546 1.01924,1.86739 2.27848,3.21255 3.77773,4.0355 1.49923,0.82295 2.98958,1.22591 4.47105,1.20888 1.58413,-0.015 3.06578,-0.345 4.44495,-0.98999 1.37913,-0.64499 2.63077,-1.51498 3.75495,-2.60997 l 0,-5.11993 -2.47997,0 c 0.0216,1.91498 -0.40168,3.46496 -1.26998,4.64994 -0.86834,1.18499 -2.31166,1.79498 -4.32995,1.82998 -1.77826,-0.0432 -3.20836,-0.59678 -4.29031,-1.66072 -1.08197,-1.06394 -1.86616,-2.37898 -2.35257,-3.94514 -0.48642,-1.56614 -0.72543,-3.12414 -0.71702,-4.67401 -0.0111,-1.58663 0.21999,-3.1555 0.69332,-4.70661 0.47332,-1.55107 1.25553,-2.84439 2.34664,-3.87995 1.09108,-1.03552 2.55773,-1.57329 4.39994,-1.61331 2.02829,0.025 3.40161,0.58501 4.11995,1.67998 0.7183,1.095 1.09163,2.57498 1.11998,4.43994 l 2.35997,-0.39999 -0.2,-3.03996 c -0.04,-0.72248 -2e-5,-1.43747 0.12,-2.14498 0.0924,-0.60093 0.14637,-0.81636 0.30011,-1.18687 l -2.23998,-0.71999 z"
         style="font-variant:normal;font-weight:bold;font-stretch:normal;font-family:Prestige Elite Std;-inkscape-font-specification:Prestige Elite Std Bold;fill:#ffffff;fill-opacity:1"
         id="path3090"
         inkscape:connector-curvature="0"
         sodipodi:nodetypes="ccccscsscccccccsscssccccccccc" />
    </g>
    <g
       transform="matrix(1.8797113,0,0,1.8797113,252.67835,92.452423)"
       id="g3894">
      <g
         id="g3886">
        <path
           d="m 121.72339,423.54224 c 0,5.71839 -4.63567,10.35406 -10.35407,10.35406 -5.71839,0 -10.35406,-4.63567 -10.35406,-10.35406 0,-5.7184 4.63567,-10.35407 10.35406,-10.35407 5.7184,0 10.35407,4.63567 10.35407,10.35407 z"
           sodipodi:ry="10.354064"
           sodipodi:rx="10.354064"
           sodipodi:cy="423.54224"
           sodipodi:cx="111.36932"
           id="path3891"
           style="fill:#ff7e08;fill-opacity:1;stroke:none"
           sodipodi:type="arc"
           transform="translate(2.6319904,31.802345)" />
        <path
           transform="matrix(0.39024393,0,0,0.39024393,70.540112,290.05979)"
           sodipodi:type="arc"
           style="fill:#000000;fill-opacity:1;stroke:none"
           id="path3893"
           sodipodi:cx="111.36932"
           sodipodi:cy="423.54224"
           sodipodi:rx="10.354064"
           sodipodi:ry="10.354064"
           d="m 121.72339,423.54224 c 0,5.71839 -4.63567,10.35406 -10.35407,10.35406 -5.71839,0 -10.35406,-4.63567 -10.35406,-10.35406 0,-5.7184 4.63567,-10.35407 10.35406,-10.35407 5.7184,0 10.35407,4.63567 10.35407,10.35407 z" />
      </g>
      <path
         sodipodi:nodetypes="csc"
         inkscape:connector-curvature="0"
         id="path3899"
         d="m 103.58654,440.57109 13.28781,0 c 9.53325,0 8.78499,-6.27236 8.78499,-8.36177"
         style="fill:none;stroke:#000000;stroke-width:4.5;stroke-linecap:butt;stroke-linejoin:miter;stroke-miterlimit:4;stroke-opacity:1;stroke-dasharray:none" />
      <g
         id="g3890">
        <path
           transform="matrix(-1,0,0,1,199.57409,31.802345)"
           sodipodi:type="arc"
           style="fill:#ff7e08;fill-opacity:1;stroke:none"
           id="path3915"
           sodipodi:cx="111.36932"
           sodipodi:cy="423.54224"
           sodipodi:rx="10.354064"
           sodipodi:ry="10.354064"
           d="m 121.72339,423.54224 c 0,5.71839 -4.63567,10.35406 -10.35407,10.35406 -5.71839,0 -10.35406,-4.63567 -10.35406,-10.35406 0,-5.7184 4.63567,-10.35407 10.35406,-10.35407 5.7184,0 10.35407,4.63567 10.35407,10.35407 z" />
        <path
           d="m 121.72339,423.54224 c 0,5.71839 -4.63567,10.35406 -10.35407,10.35406 -5.71839,0 -10.35406,-4.63567 -10.35406,-10.35406 0,-5.7184 4.63567,-10.35407 10.35406,-10.35407 5.7184,0 10.35407,4.63567 10.35407,10.35407 z"
           sodipodi:ry="10.354064"
           sodipodi:rx="10.354064"
           sodipodi:cy="423.54224"
           sodipodi:cx="111.36932"
           id="path3917"
           style="fill:#000000;fill-opacity:1;stroke:none"
           sodipodi:type="arc"
           transform="matrix(-0.39024393,0,0,0.39024393,131.66597,290.05979)" />
      </g>
      <path
         style="fill:none;stroke:#000000;stroke-width:4.5;stroke-linecap:butt;stroke-linejoin:miter;stroke-miterlimit:4;stroke-opacity:1;stroke-dasharray:none"
         d="m 98.619535,440.57109 -13.287805,0 c -9.533249,0 -8.784989,-6.27236 -8.784989,-8.36177"
         id="path3919"
         inkscape:connector-curvature="0"
         sodipodi:nodetypes="csc" />
      <path
         sodipodi:nodetypes="ssscs"
         inkscape:connector-curvature="0"
         id="path3925"
         d="m 96.039226,470.62906 c -1.673634,-4.88144 2.900657,-5.29985 5.043494,-5.29985 2.4387,0 6.71714,0.41841 5.0435,5.29985 -1.67364,4.88143 -5.0435,16.4574 -5.0435,16.4574 0,0 -3.369858,-11.57597 -5.043494,-16.4574 z"
         style="fill:#000000;fill-opacity:1;stroke:none" />
      <path
         inkscape:connector-curvature="0"
         id="path3933"
         d="m 143.59883,427.54075 0,61.96429"
         style="fill:none;stroke:#000000;stroke-width:1px;stroke-linecap:butt;stroke-linejoin:miter;stroke-opacity:1" />
      <g
         id="g3880">
        <text
           xml:space="preserve"
           style="font-size:20px;font-style:normal;font-variant:normal;font-weight:normal;font-stretch:normal;line-height:125%;letter-spacing:0px;word-spacing:0px;fill:#000000;fill-opacity:1;stroke:none;font-family:Verdana;-inkscape-font-specification:Verdana"
           x="157.32143"
           y="453.07657"
           id="text3960"
           sodipodi:linespacing="125%"><tspan
             sodipodi:role="line"
             x="157.32143"
             y="453.07657"
             style="font-size:20px;font-style:normal;font-variant:normal;font-weight:normal;font-stretch:normal;font-family:Verdana;-inkscape-font-specification:Verdana"
             id="tspan3964">Redstone</tspan></text>
        <text
           sodipodi:linespacing="125%"
           id="text3972"
           y="475.03366"
           x="157.32143"
           style="font-size:20px;font-style:normal;font-variant:normal;font-weight:normal;font-stretch:normal;line-height:125%;letter-spacing:0px;word-spacing:0px;fill:#000000;fill-opacity:1;stroke:none;font-family:Verdana;-inkscape-font-specification:Verdana"
           xml:space="preserve"><tspan
             id="tspan3974"
             style="font-size:20px;font-style:normal;font-variant:normal;font-weight:normal;font-stretch:normal;font-family:Verdana;-inkscape-font-specification:Verdana"
             y="475.03366"
             x="157.32143"
             sodipodi:role="line">Digital</tspan></text>
      </g>
    </g>
    <flowRoot
       transform="translate(-5.081581,133.63779)"
       style="font-size:40px;font-style:normal;font-variant:normal;font-weight:normal;font-stretch:normal;text-align:start;line-height:125%;letter-spacing:0px;word-spacing:0px;writing-mode:lr-tb;text-anchor:start;fill:#000000;fill-opacity:1;stroke:none;font-family:Everson Mono Unicode;-inkscape-font-specification:Everson Mono Unicode"
       id="flowRoot5389"
       xml:space="preserve"><flowRegion
         id="flowRegion5391"><rect
           y="586.64789"
           x="57.142857"
           height="224.28572"
           width="674.28571"
           id="rect5393"
           style="fill:#000000;fill-opacity:1" /></flowRegion><flowPara
         style="font-style:normal;font-variant:normal;font-weight:normal;font-stretch:normal;fill:#000000;fill-opacity:1;font-family:Verdana;-inkscape-font-specification:Verdana"
         id="flowPara5395">Instruction Set</flowPara><flowPara
         style="font-style:normal;font-variant:normal;font-weight:normal;font-stretch:normal;fill:#000000;fill-opacity:1;font-family:Verdana;-inkscape-font-specification:Verdana"
         id="flowPara5397">and Assembly Language</flowPara></flowRoot>    <flowRoot
       xml:space="preserve"
       id="flowRoot5379"
       style="font-size:40px;font-style:normal;font-variant:normal;font-weight:normal;font-stretch:normal;text-align:start;line-height:125%;letter-spacing:0px;word-spacing:0px;writing-mode:lr-tb;text-anchor:start;fill:#000000;fill-opacity:1;stroke:none;font-family:Everson Mono Unicode;-inkscape-font-specification:Everson Mono Unicode"
       transform="translate(-5.7142857,132.85715)"><flowRegion
         id="flowRegion5381"><rect
           id="rect5383"
           width="674.28571"
           height="224.28572"
           x="57.142857"
           y="586.64789" /></flowRegion><flowPara
         id="flowPara5385"
         style="font-style:normal;font-variant:normal;font-weight:normal;font-stretch:normal;fill:#ffffff;fill-opacity:1;font-family:Verdana;-inkscape-font-specification:Verdana">Instruction Set</flowPara><flowPara
         id="flowPara5387"
         style="font-style:normal;font-variant:normal;font-weight:normal;font-stretch:normal;fill:#ffffff;fill-opacity:1;font-family:Verdana;-inkscape-font-specification:Verdana">and Assembly Language</flowPara></flowRoot>    <text
       xml:space="preserve"
       style="font-size:20px;font-style:normal;font-variant:normal;font-weight:normal;font-stretch:normal;text-align:start;line-height:125%;letter-spacing:0px;word-spacing:0px;writing-mode:lr-tb;text-anchor:start;fill:#000000;fill-opacity:1;stroke:none;font-family:Palatino Linotype;-inkscape-font-specification:Palatino Linotype"
       x="26.263969"
       y="919.55682"
       id="text5411"
       sodipodi:linespacing="125%"><tspan
         sodipodi:role="line"
         id="tspan5413"
         x="26.263969"
         y="919.55682">Redstone Digital Equipment Co.</tspan><tspan
         sodipodi:role="line"
         x="26.263969"
         y="944.55682"
         id="tspan5415">Brewery Street 21-29</tspan><tspan
         sodipodi:role="line"
         x="26.263969"
         y="969.55682"
         id="tspan5417">4023 Perkele</tspan><tspan
         sodipodi:role="line"
         x="26.263969"
         y="994.55682"
         id="tspan5419">Alphire, Minecraft</tspan></text>
  </g>
</svg>
