<?xml version="1.0" encoding="UTF-8" standalone="no"?>
<!-- Created with Inkscape (http://www.inkscape.org/) -->

<svg
   xmlns:dc="http://purl.org/dc/elements/1.1/"
   xmlns:cc="http://creativecommons.org/ns#"
   xmlns:rdf="http://www.w3.org/1999/02/22-rdf-syntax-ns#"
   xmlns:svg="http://www.w3.org/2000/svg"
   xmlns="http://www.w3.org/2000/svg"
   xmlns:sodipodi="http://sodipodi.sourceforge.net/DTD/sodipodi-0.dtd"
   xmlns:inkscape="http://www.inkscape.org/namespaces/inkscape"
   width="744.09448819"
   height="1052.3622047"
   id="svg2"
   version="1.1"
   inkscape:version="0.48.4 r9939"
   sodipodi:docname="Mirac-Logo.svg">
  <defs
     id="defs4" />
  <sodipodi:namedview
     id="base"
     pagecolor="#ffffff"
     bordercolor="#666666"
     borderopacity="1.0"
     inkscape:pageopacity="0.0"
     inkscape:pageshadow="2"
     inkscape:zoom="2.8284271"
     inkscape:cx="178.68568"
     inkscape:cy="658.7322"
     inkscape:document-units="px"
     inkscape:current-layer="layer1"
     showgrid="false"
     inkscape:window-width="1920"
     inkscape:window-height="1028"
     inkscape:window-x="1672"
     inkscape:window-y="-8"
     inkscape:window-maximized="1" />
  <metadata
     id="metadata7">
    <rdf:RDF>
      <cc:Work
         rdf:about="">
        <dc:format>image/svg+xml</dc:format>
        <dc:type
           rdf:resource="http://purl.org/dc/dcmitype/StillImage" />
        <dc:title />
      </cc:Work>
    </rdf:RDF>
  </metadata>
  <g
     inkscape:label="Layer 1"
     inkscape:groupmode="layer"
     id="layer1">
    <text
       xml:space="preserve"
       style="font-size:10px;font-style:normal;font-weight:bold;line-height:125%;letter-spacing:0px;word-spacing:0px;fill:#000000;fill-opacity:1;stroke:none;font-family:Prestige Elite Std;-inkscape-font-specification:Prestige Elite Std Bold;font-stretch:normal;font-variant:normal"
       x="118.69292"
       y="348.79092"
       id="text2993"
       sodipodi:linespacing="125%"><tspan
         sodipodi:role="line"
         id="tspan2995"
         x="118.69292"
         y="348.79092" /></text>
    <g
       id="g3053"
       transform="matrix(0.72971149,0,0,0.72971149,-4.675937,76.137332)">
      <text
         sodipodi:linespacing="125%"
         id="text2997"
         y="342.50598"
         x="100.57925"
         style="font-size:40px;font-style:normal;font-weight:normal;line-height:125%;letter-spacing:0px;word-spacing:0px;fill:#000000;fill-opacity:1;stroke:none;font-family:Sans"
         xml:space="preserve"><tspan
           style="font-size:10px;font-style:normal;font-variant:normal;font-weight:bold;font-stretch:normal;fill:#000000;fill-opacity:1;font-family:Prestige Elite Std;-inkscape-font-specification:Prestige Elite Std Bold"
           y="342.50598"
           x="100.57925"
           id="tspan2999"
           sodipodi:role="line">The Minecraft Redstone Automatic Computer</tspan></text>
      <path
         inkscape:connector-curvature="0"
         id="path3001"
         d="m 90.48192,325.23471 265.86835,0"
         style="fill:none;stroke:#000000;stroke-width:1.04171836px;stroke-linecap:butt;stroke-linejoin:miter;stroke-opacity:1" />
      <g
         transform="translate(-14.549685,-1.7001497e-5)"
         style="font-size:40px;font-style:normal;font-weight:normal;line-height:125%;letter-spacing:0px;word-spacing:0px;fill:#000000;fill-opacity:1;stroke:none;font-family:Sans"
         id="flowRoot2985">
        <path
           d="m 122.01874,290.01812 0,2.23997 2.79996,0 0,19.51975 -2.79996,0 0,2.23997 8.59989,0 0,-2.23997 -3.31996,0 0,-17.03978 0.08,0 5.83993,12.83984 5.83992,-12.83984 0.08,0 0,17.03978 -3.27996,0 0,2.23997 8.55989,0 0,-2.23997 -2.79996,0 0,-19.51975 2.79996,0 0,-2.23997 -5.71993,0 -5.47992,11.95985 -5.47993,-11.95985 z"
           style="font-variant:normal;font-weight:bold;font-stretch:normal;font-family:Prestige Elite Std;-inkscape-font-specification:Prestige Elite Std Bold"
           id="path3916" />
      </g>
      <g
         transform="translate(37.35665,-1.7001497e-5)"
         style="font-size:40px;font-style:normal;font-weight:normal;line-height:125%;letter-spacing:0px;word-spacing:0px;fill:#000000;fill-opacity:1;stroke:none;font-family:Sans"
         id="flowRoot3003">
        <path
           d="m 125.57869,290.01812 0,2.23997 6.39992,0 0,19.51975 -6.39992,0 0,2.23997 15.27981,0 0,-2.23997 -6.39992,0 0,-19.51975 6.39992,0 0,-2.23997 z"
           style="font-variant:normal;font-weight:bold;font-stretch:normal;font-family:Prestige Elite Std;-inkscape-font-specification:Prestige Elite Std Bold"
           id="path3912" />
      </g>
      <g
         transform="translate(88.303004,-1.7001497e-5)"
         style="font-size:40px;font-style:normal;font-weight:normal;line-height:125%;letter-spacing:0px;word-spacing:0px;fill:#000000;fill-opacity:1;stroke:none;font-family:Sans"
         id="flowRoot3011">
        <path
           d="m 128.73865,292.11398 c 2.55459,0.0243 5.54847,-0.34662 7.6699,1.1241 0.93331,0.66668 1.41664,1.75333 1.44999,3.25996 0.0241,1.32916 -0.51418,2.41082 -1.61498,3.24496 -1.10084,0.83417 -2.90914,1.24583 -5.42493,1.23498 l -2.07998,-0.04 z m 6.51992,10.58398 c 1.59913,-0.45998 2.86078,-1.22997 3.78495,-2.30997 0.92414,-1.07997 1.3958,-2.46995 1.41498,-4.16995 -0.0708,-2.18328 -0.84917,-3.76659 -2.33497,-4.74994 -1.48583,-0.98329 -3.25414,-1.46662 -5.30493,-1.44998 -3.38575,0.0628 -6.66275,-0.0122 -9.83987,-6e-5 l 0,2.12004 3.27996,-0.0241 0,19.66386 -3.27996,0 0,2.23997 9.55987,0 0,-2.23997 -3.79995,0 0,-8.67989 3.87995,0 7.27991,10.91986 4.39994,0 0,-2.23997 -2.87996,0 z"
           style="font-variant:normal;font-weight:bold;font-stretch:normal;font-family:Prestige Elite Std;-inkscape-font-specification:Prestige Elite Std Bold"
           id="path3066"
           inkscape:connector-curvature="0"
           sodipodi:nodetypes="cccsccccsccccccccccccccccccc" />
      </g>
      <path
         inkscape:connector-curvature="0"
         id="flowRoot3019"
         d="m 275.98054,289.8125 -8.3125,21.96875 -2,0 0,2.25 8,0 0,-2.25 -3.46875,0 1.875,-5.15625 9.53125,0 1.90625,5.15625 -3.4375,0 0,2.25 8.0625,0 0,-2.25 -2,0 -8.59375,-21.96875 -1.5625,0 z m 0.78125,3.5625 4.03125,11 -7.96875,0 3.9375,-11 z"
         style="font-size:40px;font-style:normal;font-weight:normal;line-height:125%;letter-spacing:0px;word-spacing:0px;fill:#000000;fill-opacity:1;stroke:none;font-family:Sans" />
      <g
         id="flowRoot3027"
         style="font-size:40px;font-style:normal;font-weight:normal;line-height:125%;letter-spacing:0px;word-spacing:0px;fill:#000000;fill-opacity:1;stroke:none;font-family:Sans"
         transform="translate(196.82465,-1.7001497e-5)">
        <path
           sodipodi:nodetypes="ccccscsscccccccsscssccccccccc"
           inkscape:connector-curvature="0"
           id="path3090"
           style="font-variant:normal;font-weight:bold;font-stretch:normal;font-family:Prestige Elite Std;-inkscape-font-specification:Prestige Elite Std Bold"
           d="m 139.77851,290.89811 c -0.82834,-0.42414 -1.71166,-0.7558 -2.64997,-0.99499 -0.93833,-0.23914 -1.88165,-0.3608 -2.82996,-0.36499 -1.50765,-0.0185 -3.01676,0.36076 -4.52735,1.13776 -1.5106,0.77705 -2.77676,2.06296 -3.79847,3.85773 -1.02172,1.79481 -1.55307,4.20959 -1.59405,7.24435 0.0415,3.11627 0.57184,5.60808 1.59109,7.47546 1.01924,1.86739 2.27848,3.21255 3.77773,4.0355 1.49923,0.82295 2.98958,1.22591 4.47105,1.20888 1.58413,-0.015 3.06578,-0.345 4.44495,-0.98999 1.37913,-0.64499 2.63077,-1.51498 3.75495,-2.60997 l 0,-5.11993 -2.47997,0 c 0.0216,1.91498 -0.40168,3.46496 -1.26998,4.64994 -0.86834,1.18499 -2.31166,1.79498 -4.32995,1.82998 -1.77826,-0.0432 -3.20836,-0.59678 -4.29031,-1.66072 -1.08197,-1.06394 -1.86616,-2.37898 -2.35257,-3.94514 -0.48642,-1.56614 -0.72543,-3.12414 -0.71702,-4.67401 -0.0111,-1.58663 0.21999,-3.1555 0.69332,-4.70661 0.47332,-1.55107 1.25553,-2.84439 2.34664,-3.87995 1.09108,-1.03552 2.55773,-1.57329 4.39994,-1.61331 2.02829,0.025 3.40161,0.58501 4.11995,1.67998 0.7183,1.095 1.09163,2.57498 1.11998,4.43994 l 2.35997,-0.39999 -0.2,-3.03996 c -0.04,-0.72248 -2e-5,-1.43747 0.12,-2.14498 0.0924,-0.60093 0.14637,-0.81636 0.30011,-1.18687 l -2.23998,-0.71999 z" />
      </g>
    </g>
    <flowRoot
       xml:space="preserve"
       id="flowRoot3870"
       style="font-size:10px;font-style:normal;font-weight:normal;line-height:125%;letter-spacing:0px;word-spacing:0px;fill:#000000;fill-opacity:1;stroke:none;font-family:Sans"><flowRegion
         id="flowRegion3872"><rect
           id="rect3874"
           width="175.51401"
           height="57.07362"
           x="79.802048"
           y="430.36075"
           style="font-size:10px" /></flowRegion><flowPara
         id="flowPara3880" /></flowRoot>    <flowRoot
       xml:space="preserve"
       id="flowRoot3944"
       style="font-size:40px;font-style:normal;font-weight:normal;line-height:125%;letter-spacing:0px;word-spacing:0px;fill:#000000;fill-opacity:1;stroke:none;font-family:Source Code Pro;-inkscape-font-specification:Source Code Pro;font-stretch:normal;font-variant:normal"><flowRegion
         id="flowRegion3946"><rect
           id="rect3948"
           width="197.5"
           height="53.928574"
           x="154.82143"
           y="432.00504"
           style="-inkscape-font-specification:Source Code Pro;font-family:Source Code Pro;font-weight:normal;font-style:normal;font-stretch:normal;font-variant:normal" /></flowRegion><flowPara
         style="font-size:28px;font-style:normal;font-variant:normal;font-weight:normal;font-stretch:normal;font-family:Source Code Pro;-inkscape-font-specification:Source Code Pro"
         id="flowPara3952" /></flowRoot>    <text
       xml:space="preserve"
       style="font-size:40px;font-style:normal;font-weight:normal;line-height:125%;letter-spacing:0px;word-spacing:0px;fill:#000000;fill-opacity:1;stroke:none;font-family:Sans"
       x="153.75"
       y="455.21933"
       id="text3968"
       sodipodi:linespacing="125%"><tspan
         sodipodi:role="line"
         id="tspan3970"
         x="153.75"
         y="455.21933" /></text>
    <g
       id="g3894">
      <g
         id="g3886">
        <path
           d="m 121.72339,423.54224 a 10.354064,10.354064 0 1 1 -20.70813,0 10.354064,10.354064 0 1 1 20.70813,0 z"
           sodipodi:ry="10.354064"
           sodipodi:rx="10.354064"
           sodipodi:cy="423.54224"
           sodipodi:cx="111.36932"
           id="path3891"
           style="fill:#ff7e08;fill-opacity:1;stroke:none"
           sodipodi:type="arc"
           transform="translate(2.6319904,31.802345)" />
        <path
           transform="matrix(0.39024393,0,0,0.39024393,70.540112,290.05979)"
           sodipodi:type="arc"
           style="fill:#000000;fill-opacity:1;stroke:none"
           id="path3893"
           sodipodi:cx="111.36932"
           sodipodi:cy="423.54224"
           sodipodi:rx="10.354064"
           sodipodi:ry="10.354064"
           d="m 121.72339,423.54224 a 10.354064,10.354064 0 1 1 -20.70813,0 10.354064,10.354064 0 1 1 20.70813,0 z" />
      </g>
      <path
         sodipodi:nodetypes="csc"
         inkscape:connector-curvature="0"
         id="path3899"
         d="m 103.58654,440.57109 13.28781,0 c 9.53325,0 8.78499,-6.27236 8.78499,-8.36177"
         style="fill:none;stroke:#000000;stroke-width:4.5;stroke-linecap:butt;stroke-linejoin:miter;stroke-miterlimit:4;stroke-opacity:1;stroke-dasharray:none" />
      <g
         id="g3890">
        <path
           transform="matrix(-1,0,0,1,199.57409,31.802345)"
           sodipodi:type="arc"
           style="fill:#ff7e08;fill-opacity:1;stroke:none"
           id="path3915"
           sodipodi:cx="111.36932"
           sodipodi:cy="423.54224"
           sodipodi:rx="10.354064"
           sodipodi:ry="10.354064"
           d="m 121.72339,423.54224 a 10.354064,10.354064 0 1 1 -20.70813,0 10.354064,10.354064 0 1 1 20.70813,0 z" />
        <path
           d="m 121.72339,423.54224 a 10.354064,10.354064 0 1 1 -20.70813,0 10.354064,10.354064 0 1 1 20.70813,0 z"
           sodipodi:ry="10.354064"
           sodipodi:rx="10.354064"
           sodipodi:cy="423.54224"
           sodipodi:cx="111.36932"
           id="path3917"
           style="fill:#000000;fill-opacity:1;stroke:none"
           sodipodi:type="arc"
           transform="matrix(-0.39024393,0,0,0.39024393,131.66597,290.05979)" />
      </g>
      <path
         style="fill:none;stroke:#000000;stroke-width:4.5;stroke-linecap:butt;stroke-linejoin:miter;stroke-miterlimit:4;stroke-opacity:1;stroke-dasharray:none"
         d="m 98.619535,440.57109 -13.287805,0 c -9.533249,0 -8.784989,-6.27236 -8.784989,-8.36177"
         id="path3919"
         inkscape:connector-curvature="0"
         sodipodi:nodetypes="csc" />
      <path
         sodipodi:nodetypes="ssscs"
         inkscape:connector-curvature="0"
         id="path3925"
         d="m 96.039226,470.62906 c -1.673634,-4.88144 2.900657,-5.29985 5.043494,-5.29985 2.4387,0 6.71714,0.41841 5.0435,5.29985 -1.67364,4.88143 -5.0435,16.4574 -5.0435,16.4574 0,0 -3.369858,-11.57597 -5.043494,-16.4574 z"
         style="fill:#000000;fill-opacity:1;stroke:none" />
      <path
         inkscape:connector-curvature="0"
         id="path3933"
         d="m 143.59883,427.54075 0,61.96429"
         style="fill:none;stroke:#000000;stroke-width:1px;stroke-linecap:butt;stroke-linejoin:miter;stroke-opacity:1" />
      <g
         id="g3880">
        <text
           xml:space="preserve"
           style="font-size:20px;font-style:normal;font-variant:normal;font-weight:normal;font-stretch:normal;line-height:125%;letter-spacing:0px;word-spacing:0px;fill:#000000;fill-opacity:1;stroke:none;font-family:Verdana;-inkscape-font-specification:Verdana"
           x="157.32143"
           y="453.07657"
           id="text3960"
           sodipodi:linespacing="125%"><tspan
             sodipodi:role="line"
             x="157.32143"
             y="453.07657"
             style="font-size:20px;font-style:normal;font-variant:normal;font-weight:normal;font-stretch:normal;font-family:Verdana;-inkscape-font-specification:Verdana"
             id="tspan3964">Redstone</tspan></text>
        <text
           sodipodi:linespacing="125%"
           id="text3972"
           y="475.03366"
           x="157.32143"
           style="font-size:20px;font-style:normal;font-variant:normal;font-weight:normal;font-stretch:normal;line-height:125%;letter-spacing:0px;word-spacing:0px;fill:#000000;fill-opacity:1;stroke:none;font-family:Verdana;-inkscape-font-specification:Verdana"
           xml:space="preserve"><tspan
             id="tspan3974"
             style="font-size:20px;font-style:normal;font-variant:normal;font-weight:normal;font-stretch:normal;font-family:Verdana;-inkscape-font-specification:Verdana"
             y="475.03366"
             x="157.32143"
             sodipodi:role="line">Digital</tspan></text>
      </g>
    </g>
  </g>
</svg>
